<svg width="585" height="585" viewBox="0 0 585 585" fill="none" xmlns="http://www.w3.org/2000/svg">
<path d="M292.5 585C131.367 585 0 453.697 0 292.357C0 131.017 131.367 0 292.5 0C453.633 0 585 131.303 585 292.357C585 453.411 453.919 585 292.5 585ZM292.5 27.7482C146.536 27.7482 27.4755 146.465 27.4755 292.643C27.4755 438.822 146.25 557.538 292.5 557.538C438.75 557.538 557.524 438.822 557.524 292.643C557.524 146.465 438.75 27.7482 292.5 27.7482Z" fill="#FAFAFA"/>
<path d="M206.638 251C169.431 251 138.808 222.666 135.087 186.605C134.515 182.598 137.949 178.877 142.242 178.877H155.121C159.128 178.877 162.562 182.025 163.135 186.032C166.569 207.211 184.886 223.239 206.924 223.239C228.962 223.239 247.279 207.211 250.713 186.032C251.286 182.025 254.72 178.877 258.727 178.877H271.606C275.899 178.877 279.047 182.598 278.761 186.605C274.468 222.666 243.558 251 206.638 251Z" fill="#FAFAFA"/>
<path d="M443.042 236.977H430.162C426.156 236.977 422.721 233.828 422.149 229.822C418.714 208.642 400.397 192.615 378.36 192.615C356.322 192.615 338.005 208.642 334.57 229.822C333.998 233.828 330.564 236.977 326.557 236.977H313.678C309.384 236.977 306.236 233.256 306.522 229.249C310.529 193.187 341.153 164.853 378.073 164.853C414.994 164.853 445.904 193.187 449.624 229.249C450.769 233.256 447.335 236.977 443.042 236.977Z" fill="#FAFAFA"/>
<path d="M296.083 490.968C184.866 492.971 94 400.288 94 289.298V285.865C94 282.147 97.1531 279 100.879 279H484.12C487.846 279 490.999 282.147 490.999 285.865V292.731C491.286 400.86 404.147 489.252 296.083 490.968ZM127.537 306.748C124.957 306.748 122.664 309.036 122.951 311.61C132.41 396.855 204.93 463.221 292.643 463.221C380.355 463.221 452.876 396.855 462.335 311.61C462.622 309.036 460.615 306.748 457.749 306.748H127.537V306.748Z" fill="#FAFAFA"/>
</svg>
