<svg xmlns="http://www.w3.org/2000/svg" xmlns:xlink="http://www.w3.org/1999/xlink" width="558" height="138" viewBox="0 0 558 138">
  <defs>
    <style>
      .cls-1 {
        clip-path: url(#clip-dailyhits);
      }

      .cls-2 {
        fill: url(#linear-gradient);
      }

      .cls-3 {
        fill: #fff;
      }
    </style>
    <linearGradient id="linear-gradient" x1="0.147" y1="0.151" x2="0.865" y2="0.915" gradientUnits="objectBoundingBox">
      <stop offset="0" stop-color="#f9a8fc"/>
      <stop offset="0.473" stop-color="#f3ce34"/>
      <stop offset="1" stop-color="#fc2"/>
    </linearGradient>
    <clipPath id="clip-dailyhits">
      <rect width="558" height="138"/>
    </clipPath>
  </defs>
  <g id="dailyhits" class="cls-1">
    <g id="Group_123" data-name="Group 123" transform="translate(-682 -152)">
      <circle id="Ellipse_8" data-name="Ellipse 8" class="cls-2" cx="46.5" cy="46.5" r="46.5" transform="translate(695 268) rotate(-90)"/>
      <path id="Path_192" data-name="Path 192" class="cls-3" d="M14.22,27.3l11.745-15.75H24.12L13.455,25.855,1.935,11.545H0l12.735,15.8v15.7H14.22Zm32.76,16.47A16.538,16.538,0,1,1,63.5,27.2,16.564,16.564,0,0,1,46.98,43.765Zm0-31.545A15.008,15.008,0,1,0,61.965,27.2,15.047,15.047,0,0,0,46.98,12.22ZM83.745,43.765A11.254,11.254,0,0,1,72.5,32.515V11.5H73.98V32.515a9.788,9.788,0,0,0,19.575,0V11.5H95.04V32.515A11.264,11.264,0,0,1,83.745,43.765Zm35.415-16.29a7.992,7.992,0,1,0,.36-15.975H106.29V43h1.53V27.475H117.4L126.45,43h1.755ZM107.82,25.99v-13h11.7a6.5,6.5,0,0,1,0,13ZM164.205,43V11.5h6.345a15.75,15.75,0,0,1,0,31.5Zm1.53-30.015V41.47h4.815a14.243,14.243,0,0,0,0-28.485Zm38.88-1.485H203.31L190.8,43h1.62l4.23-10.8h14.4L215.325,43h1.62ZM197.28,30.67l6.66-16.695,6.525,16.695ZM225.225,11.5V43H223.7V11.5Zm30.69,29.97V43h-19.44V11.5h1.53V41.47ZM270.135,27.3l11.745-15.75h-1.845L269.37,25.855l-11.52-14.31h-1.935l12.735,15.8v15.7h1.485Zm66.2-1.305V11.5h1.485V43H336.33V27.475H319.365V43H317.88V11.5h1.485V25.99ZM350.6,11.5V43h-1.53V11.5Zm29.07,1.485V11.5H359.6v1.485h9.27V43h1.53V12.985Zm26.64,21.6c0,8.28-7.29,9.18-11.07,9.18-6.48,0-11.07-3.015-11.07-9.18h1.53c0,7.2,6.66,7.65,9.585,7.65,5.9,0,9.5-2.3,9.5-7.65,0-11.2-18.135-2.61-18.135-16.6,0-4.59,3.2-7.11,8.505-7.11,4.635,0,8.37,2.2,8.37,7.11h-1.53c0-3.87-2.61-5.625-6.84-5.625-4.365,0-7.02,1.755-7.02,5.625C388.125,30.49,406.305,21.535,406.305,34.585Z" transform="translate(811 191)"/>
    </g>
  </g>
</svg>
