<svg xmlns="http://www.w3.org/2000/svg" xmlns:xlink="http://www.w3.org/1999/xlink" width="558" height="138" viewBox="0 0 558 138">
  <defs>
    <style>
      .cls-1 {
        clip-path: url(#clip-trending);
      }

      .cls-2 {
        fill: #fff;
      }
    </style>
    <clipPath id="clip-trending">
      <rect width="558" height="138"/>
    </clipPath>
  </defs>
  <g id="trending" class="cls-1">
    <g id="Group_123" data-name="Group 123" transform="translate(-447.027 -141)">
      <path id="Path_194" data-name="Path 194" class="cls-2" d="M41.535,61c3.38-2.99,9.685-13.715,15.275-25.935,1.82,1.56,3.185,2.665,3.185,3.965a6.285,6.285,0,0,1-.585,2.275L57.33,46.57c-4.68,11.505.715,15.275,5.785,15.275,7.15,0,12.35-7.67,17.355-16.315a5.058,5.058,0,0,0-3.64-2.6c-4.94,8.45-8.125,12.545-9.945,12.545-.845,0-2.535-.845.52-8.32l1.82-4.615a9.021,9.021,0,0,0,.78-3.25c0-4.875-8-8.515-10.66-10.855l2.08-5.2-4.03-2.21c11.57-.13,12.675-7.6,12.675-7.6l-5.395-2.99s-1.885,1.885-7.865,1.885c-10.92,0-27.3-5.98-37.9-5.98-11.18,0-15.47,6.5-15.47,13,0,7.67,5.85,11.7,11.96,11.7A13.825,13.825,0,0,0,24.7,27.46l-4.16-6.305a7.128,7.128,0,0,1-4.485,1.95c-2.015,0-4.225-1.235-4.225-3.77,0-2.405,1.95-4.29,6.5-4.29,4.485,0,11.96,1.755,19.565,3.445L28.86,40.85c-3.77,9.1-7.54,14.56-13.65,14.56-3.315,0-6.37-2.275-6.37-5.98,0-2.34,1.17-6.11,7.28-5.655v-8.58C5.98,34.415,0,41.5,0,49.365,0,56.71,5.135,63.99,15.86,63.99c5.915,0,15.08-2.275,21.255-17.875L47.58,20.31a67.454,67.454,0,0,0,9.23.715c-2.6,1.04-5.72,4.42-5.72,7.54,0,1.625.845,2.73,2.015,3.965C46.865,46.375,40.95,55.54,37.96,58.4A4.944,4.944,0,0,0,41.535,61Zm68.51-18.07C105.43,51.12,98.41,55.475,91.78,55.475c-8.255,0-6.37-6.76-6.37-6.76,12.025,1.56,17.225-2.21,19.955-8.125,4.16-9.36-2.08-14.17-9.425-14.17-13.91,0-20.475,15.275-20.475,23.92,0,7.085,4.355,11.505,13.39,11.505,12.48,0,20.41-8.515,24.83-16.315A5.058,5.058,0,0,0,110.045,42.93ZM95.42,34.675c2.21,0,1.82,1.755.975,3.705-1.3,3.055-3.25,5.785-9.23,4.745C87.165,43.125,90.61,34.675,95.42,34.675Zm52.65,8.255c-4.615,7.995-9.1,12.545-11.7,12.545-1.1,0-2.34-.845.65-8.32l3.185-7.735c1.365-3.38,1.95-5.59,1.95-7.345,0-3.445-2.145-5.655-6.24-5.655-5.525,0-10.335,3.965-10.66,4.29l1.365-3.445H116.285L102.635,61H112.97l8.775-21.645c2.73-3.12,5.72-4.615,7.28-4.615.975,0,1.755.52,1.755,1.43,0,.975-1.04,3.445-2.275,6.565l-.975,2.4c-4.615,11.505-1.82,16.705,4.94,16.705,7.8,0,14.04-7.28,19.24-16.315A5.058,5.058,0,0,0,148.07,42.93Zm38.61,0c-4.68,7.995-9.1,12.545-11.7,12.545-1.105,0-2.34-.91.65-8.32L188.89,14.4H178.555l-7.02,17.29a7.759,7.759,0,0,0-7.67-5.265c-11.9,0-18.07,19.76-18.07,26.975,0,4.485,2.47,8.45,7.345,8.45,5.785,0,10.27-5.4,10.27-5.4s.845,5.4,7.67,5.4c7.865,0,14.17-7.475,19.24-16.315A5.058,5.058,0,0,0,186.68,42.93ZM158.015,53.59c-1.3,0-2.08-.715-2.08-2.4,0-4.16,4.81-16.315,9.945-16.315,2.86,0,2.925,3.64,2.925,3.64l-4.225,10.4S161.655,53.59,158.015,53.59Zm43.42-29.055a5.859,5.859,0,0,0,5.72-5.72,5.714,5.714,0,0,0-5.72-5.655,5.632,5.632,0,0,0-5.72,5.655A5.771,5.771,0,0,0,201.435,24.535Zm4.81,18.4c-4.615,7.995-9.1,12.545-11.7,12.545-1.105,0-2.275-.91.715-8.32l7.995-19.89H192.92L185.575,45.4c-4.745,11.765-.585,16.445,5.33,16.445,7.475,0,13.975-7.54,18.98-16.315A5.058,5.058,0,0,0,206.245,42.93Zm38.025,0c-4.615,7.995-9.1,12.545-11.7,12.545-1.1,0-2.34-.845.65-8.32L236.4,39.42c1.365-3.38,1.95-5.59,1.95-7.345,0-3.445-2.145-5.655-6.24-5.655-5.525,0-10.335,3.965-10.66,4.29l1.365-3.445H212.485L198.835,61H209.17l8.775-21.645c2.73-3.12,5.72-4.615,7.28-4.615.975,0,1.755.52,1.755,1.43,0,.975-1.04,3.445-2.275,6.565l-.975,2.4c-4.615,11.505-1.82,16.705,4.94,16.705,7.8,0,14.04-7.28,19.24-16.315A5.058,5.058,0,0,0,244.27,42.93Zm38.025,0c-4.615,8.06-8.97,12.48-15.08,15.6l12.74-31.265H269.62l-1.82,4.42a7.84,7.84,0,0,0-7.735-5.265c-12.35,0-18.005,19.89-18.005,26.845,0,4.745,2.535,8.58,7.28,8.58,4.55,0,8.06-4.485,8.06-4.485l-1.755,4.42c-1.43.78-5.4,2.47-7.475,3.445-3.51,1.69-7.345,4.615-7.41,9.165,0,3.77,2.535,7.15,8.06,7.15,7.8,0,11.7-6.5,14.365-12.935.455-1.3,1.43-3.705,1.43-3.705,7.67-3.575,14.625-7.67,21.32-19.37A5.058,5.058,0,0,0,282.3,42.93ZM254.28,53.59c-1.3,0-2.08-.715-2.08-2.4,0-4.16,4.81-16.315,9.945-16.315,2.795,0,2.86,3.64,2.86,3.64l-4.225,10.4S257.855,53.59,254.28,53.59Zm-8.515,20.085c0-1.3,1.3-2.4,2.6-3.185,1.56-1.04,2.99-1.56,4.875-2.665-2.21,5.915-4.42,7.475-5.85,7.475A1.532,1.532,0,0,1,245.765,73.675Z" transform="translate(576.027 166)"/>
    </g>
  </g>
</svg>
