<?xml version="1.0" encoding="utf-8"?>
<!-- Generator: Adobe Illustrator 22.0.1, SVG Export Plug-In . SVG Version: 6.00 Build 0)  -->
<svg version="1.1" id="Layer_1" xmlns="http://www.w3.org/2000/svg" xmlns:xlink="http://www.w3.org/1999/xlink" x="0px" y="0px"
	 viewBox="0 0 100 100" style="enable-background:new 0 0 100 100;" xml:space="preserve">
<style type="text/css">
	.st0{fill:none;stroke:#FFFFFF;stroke-width:2;stroke-miterlimit:10;}
	.st1{fill:none;stroke:#FFFFFF;stroke-width:2;stroke-linecap:round;stroke-miterlimit:10;}
</style>
<g>
	<path class="st0" d="M50,28C26.8,28,8,41.4,8,58s18.8,30,42,30s42-13.4,42-30S73.2,28,50,28L50,28z"/>
</g>
<circle class="st0" cx="66" cy="52" r="6"/>
<circle class="st0" cx="34" cy="52" r="6"/>
<path class="st1" d="M31.8,70c0,0,5.2,7.4,18.2,7.4S68.2,70,68.2,70"/>
<path class="st0" d="M50,28c0-12,2.4-20,8-20s5.2,8,16,8"/>
<path class="st0" d="M78.6,34.6c3.6-3.6,9.2-3.6,12.8,0s3.6,9.2,0,12.8l-0.8,0.8"/>
<path class="st0" d="M21.4,34.6c-3.6-3.6-9.2-3.6-12.8,0s-3.6,9.2,0,12.8l0.8,0.8"/>
<circle class="st0" cx="82" cy="16" r="8"/>
</svg>
